HIERARCHY
ROOT Hips
{
 OFFSET 0.000000 0.000000 0.000000
 CHANNELS 6 Xposition Yposition Zposition Yrotation Xrotation Zrotation
 JOINT Chest
 {
  OFFSET 0.000000 10.932484 0.001155
  CHANNELS 3 Yrotation Xrotation Zrotation
  JOINT Chest2
  {
   OFFSET 0.000000 12.093805 -0.002099
   CHANNELS 3 Yrotation Xrotation Zrotation
   JOINT Chest3
   {
    OFFSET 0.000000 10.927800 0.000000
    CHANNELS 3 Yrotation Xrotation Zrotation
    JOINT Chest4
    {
     OFFSET 0.000000 10.927800 0.000000
     CHANNELS 3 Yrotation Xrotation Zrotation
     JOINT Neck
     {
      OFFSET 0.000000 15.355144 0.000000
      CHANNELS 3 Yrotation Xrotation Zrotation
      JOINT Head
      {
       OFFSET 0.000000 10.170446 -0.004991
       CHANNELS 3 Yrotation Xrotation Zrotation
       End Site
       {
        OFFSET 0.000000 19.463738 -0.002607
       }
      }
     }
     JOINT RightCollar
     {
      OFFSET -3.333126 8.566406 0.000000
      CHANNELS 3 Yrotation Xrotation Zrotation
      JOINT RightShoulder
      {
       OFFSET -15.529370 0.000000 0.000000
       CHANNELS 3 Yrotation Xrotation Zrotation
       JOINT RightElbow
       {
        OFFSET 0.000000 -33.145213 0.000000
        CHANNELS 3 Yrotation Xrotation Zrotation
        JOINT RightWrist
        {
         OFFSET 0.000000 -27.120720 -0.000000
         CHANNELS 3 Yrotation Xrotation Zrotation
         End Site
         {
          OFFSET 0.000000 -20.306483 0.000000
         }
        }
       }
      }
     }
     JOINT LeftCollar
     {
      OFFSET 3.333126 8.566406 0.000000
      CHANNELS 3 Yrotation Xrotation Zrotation
      JOINT LeftShoulder
      {
       OFFSET 15.529370 0.000000 0.000000
       CHANNELS 3 Yrotation Xrotation Zrotation
       JOINT LeftElbow
       {
        OFFSET 0.000000 -33.145213 0.000000
        CHANNELS 3 Yrotation Xrotation Zrotation
        JOINT LeftWrist
        {
         OFFSET 0.000000 -27.120720 -0.000000
         CHANNELS 3 Yrotation Xrotation Zrotation
         End Site
         {
          OFFSET 0.000000 -20.306483 0.000000
         }
        }
       }
      }
     }
    }
   }
  }
 }
 JOINT RightHip
 {
  OFFSET -8.869179 -0.005661 -0.000578
  CHANNELS 3 Yrotation Xrotation Zrotation
  JOINT RightKnee
  {
   OFFSET 0.000000 -45.835245 0.000547
   CHANNELS 3 Yrotation Xrotation Zrotation
   JOINT RightAnkle
   {
    OFFSET 0.000000 -44.890236 0.000924
    CHANNELS 3 Yrotation Xrotation Zrotation
    JOINT RightToe
    {
     OFFSET 0.000000 -8.082775 18.351045
     CHANNELS 3 Yrotation Xrotation Zrotation
     End Site
     {
      OFFSET 0.000000 -1.681997 7.345339
     }
    }
   }
  }
 }
 JOINT LeftHip
 {
  OFFSET 8.869179 -0.005661 -0.000578
  CHANNELS 3 Yrotation Xrotation Zrotation
  JOINT LeftKnee
  {
   OFFSET 0.000000 -45.835245 0.000547
   CHANNELS 3 Yrotation Xrotation Zrotation
   JOINT LeftAnkle
   {
    OFFSET 0.000000 -44.890236 0.000924
    CHANNELS 3 Yrotation Xrotation Zrotation
    JOINT LeftToe
    {
     OFFSET 0.000000 -8.082775 18.351045
     CHANNELS 3 Yrotation Xrotation Zrotation
     End Site
     {
      OFFSET 0.000000 -1.681997 7.345339
     }
    }
   }
  }
 }
}
MOTION
Frames: 8
Frame Time: 0.008333
306.578183 53.690507 91.671363 -50.939267 -25.560501 -0.718450 -0.387840 15.828910 -0.464071 -0.108641 7.045121 -0.459587 -0.108641 7.045121 -0.459587 -0.076056 5.283926 -0.342997 -1.487161 12.229953 -1.973215 -2.001690 -13.480186 -3.136236 -6.049182 1.482308 6.000082 25.975126 -30.743716 -28.057445 10.073869 -34.530508 8.346416 33.185921 -5.196444 -23.989939 0.997068 -0.400514 -5.369059 -24.345349 -31.674870 34.598892 12.481939 -25.866350 -13.588446 -25.038790 -9.836632 16.296278 -20.964014 -62.312458 5.816862 -176.144053 74.747904 174.817071 3.050905 -16.130768 -2.011724 -0.004420 0.379520 0.003712 15.201836 -64.255887 1.480430 -176.190463 65.662233 -172.526433 4.035402 -23.474142 3.988886 -0.137684 -1.053202 -0.062329
306.579008 53.690956 91.672675 -50.935136 -25.551775 -0.717138 -0.391591 15.833038 -0.459954 -0.110474 7.047300 -0.458783 -0.110474 7.047300 -0.458783 -0.077436 5.285561 -0.342373 -1.413586 12.210735 -1.981748 -1.857317 -13.514887 -3.183862 -6.045122 1.477294 5.993957 25.981656 -30.751040 -28.067848 10.060758 -34.550797 8.356399 33.192951 -5.183013 -23.984491 1.002392 -0.413867 -5.369784 -24.347948 -31.677239 34.589355 12.448428 -25.842881 -13.552156 -25.008295 -9.872929 16.291327 -20.960277 -62.322145 5.810831 -176.159225 74.748131 174.799435 3.079185 -16.129603 -2.015646 -0.003588 0.379948 0.003660 15.205744 -64.262159 1.465121 -176.195511 65.661588 -172.537396 4.094880 -23.477173 3.964384 -0.136324 -1.054866 -0.059506
306.580817 53.690533 91.675083 -50.931550 -25.544437 -0.718939 -0.395290 15.833542 -0.454938 -0.111684 7.048095 -0.457526 -0.111684 7.048095 -0.457526 -0.078357 5.286159 -0.341416 -1.343167 12.187492 -1.989121 -1.719361 -13.557017 -3.228004 -6.039704 1.484797 5.988562 25.992310 -30.754464 -28.079026 10.036586 -34.569707 8.366438 33.195987 -5.165939 -23.988797 1.009214 -0.413941 -5.369672 -24.370907 -31.679645 34.590236 12.467818 -25.843966 -13.547414 -25.005258 -9.868714 16.293310 -20.957945 -62.329051 5.809198 -176.187000 74.746575 174.775857 3.039569 -16.129687 -2.003402 -0.004268 0.379011 0.001734 15.200907 -64.274151 1.470614 -176.175593 65.658579 -172.519780 4.034426 -23.467699 3.990861 -0.135410 -1.058633 -0.058699
306.582061 53.690981 91.677016 -50.929671 -25.539121 -0.716710 -0.393163 15.836632 -0.450830 -0.111612 7.049717 -0.456099 -0.111612 7.049717 -0.456099 -0.078318 5.287375 -0.340348 -1.279625 12.160890 -1.999743 -1.593052 -13.605388 -3.275506 -6.038712 1.485929 5.988870 25.990641 -30.754607 -28.093613 10.024802 -34.595725 8.376655 33.198905 -5.153420 -23.988424 1.008343 -0.417040 -5.368919 -24.379824 -31.683291 34.591481 12.446018 -25.821182 -13.522344 -24.974869 -9.899930 16.286612 -20.945242 -62.334923 5.798803 -176.213263 74.745424 174.754948 3.008840 -16.129450 -1.996330 -0.004433 0.377803 0.001968 15.216816 -64.277742 1.453501 -176.170334 65.658222 -172.513732 4.034057 -23.469051 3.991659 -0.131231 -1.057717 -0.056248
306.583071 53.690543 91.679499 -50.922262 -25.533308 -0.715384 -0.392956 15.839999 -0.446061 -0.111309 7.051525 -0.454392 -0.111309 7.051525 -0.454392 -0.078109 5.288730 -0.339072 -1.223098 12.128772 -2.012526 -1.479073 -13.664022 -3.324257 -6.039962 1.489088 5.989274 25.980442 -30.751699 -28.102663 10.027564 -34.630893 8.381422 33.194694 -5.135557 -23.993777 0.998904 -0.421639 -5.367058 -24.387556 -31.682394 34.589046 12.467922 -25.824811 -13.519256 -24.966186 -9.903235 16.285372 -20.936023 -62.341767 5.787898 -176.289782 74.742656 174.675705 3.011352 -16.132047 -1.993527 -0.004589 0.379428 0.002038 15.240628 -64.285486 1.434087 -176.177675 65.658459 -172.515922 3.968524 -23.461590 4.019859 -0.129700 -1.059718 -0.054752
306.584619 53.689691 91.682503 -50.921336 -25.525639 -0.711358 -0.387794 15.846790 -0.442576 -0.110434 7.053780 -0.453220 -0.110434 7.053780 -0.453220 -0.077466 5.290421 -0.338204 -1.168729 12.091766 -2.027375 -1.368185 -13.731682 -3.376153 -6.043142 1.482341 5.993903 25.978926 -30.746094 -28.115079 10.018057 -34.661294 8.388657 33.190859 -5.127754 -23.997985 0.997001 -0.430538 -5.363400 -24.393522 -31.680721 34.583347 12.453965 -25.812708 -13.498941 -24.928375 -9.936933 16.289412 -20.913837 -62.351332 5.772271 -176.305186 74.739125 174.664998 2.970127 -16.137256 -1.979072 -0.006276 0.380548 0.002231 15.257450 -64.290242 1.413718 -176.176019 65.657497 -172.514939 3.966944 -23.465704 4.024458 -0.128529 -1.057544 -0.056026
306.585399 53.690152 91.682968 -50.914086 -25.515036 -0.714165 -0.387658 15.850390 -0.439715 -0.109556 7.056442 -0.451494 -0.109556 7.056442 -0.451494 -0.076826 5.292416 -0.336921 -1.117747 12.053625 -2.043989 -1.262920 -13.801427 -3.430072 -6.045276 1.477416 6.002100 25.978274 -30.742263 -28.132497 10.003491 -34.689708 8.391835 33.188773 -5.124163 -23.985251 0.991482 -0.440707 -5.354466 -24.386622 -31.679397 34.572030 12.470388 -25.826203 -13.506576 -24.920931 -9.943496 16.281291 -20.917270 -62.359589 5.779092 -176.301456 74.739035 174.667132 2.960719 -16.140036 -1.974524 -0.006037 0.381344 0.004365 15.258105 -64.300094 1.413185 -176.179082 65.659366 -172.526348 3.977886 -23.468053 4.025891 -0.125946 -1.055705 -0.054728
306.587602 53.691647 91.683874 -50.907943 -25.505749 -0.716736 -0.387730 15.853089 -0.438300 -0.108873 7.058855 -0.450436 -0.108873 7.058855 -0.450436 -0.076325 5.294225 -0.336135 -1.069485 12.017264 -2.059722 -1.163191 -13.867860 -3.481206 -6.047149 1.477461 6.017139 25.979789 -30.741496 -28.148959 9.994613 -34.715683 8.397523 33.182436 -5.113866 -23.990408 0.988255 -0.446212 -5.350793 -24.392913 -31.675890 34.577296 12.464911 -25.810168 -13.493004 -24.883095 -9.975475 16.285326 -20.921181 -62.366909 5.780726 -176.303475 74.740803 174.668175 2.945286 -16.139475 -1.972715 -0.006453 0.380568 0.005401 15.253769 -64.307047 1.413114 -176.165805 65.663378 -172.518597 3.970904 -23.466744 4.029863 -0.123624 -1.053798 -0.051882
